<?xml version="1.0" encoding="utf-8"?>
<!-- Generator: Adobe Illustrator 27.9.0, SVG Export Plug-In . SVG Version: 6.00 Build 0)  -->
<svg version="1.1" id="Layer_1" xmlns="http://www.w3.org/2000/svg" xmlns:xlink="http://www.w3.org/1999/xlink" x="0px" y="0px"
	 viewBox="0 0 612 612" style="enable-background:new 0 0 612 612;" xml:space="preserve">
<style type="text/css">
	.st0{fill:#FFE600;}
	.st1{fill:#161616;}
	.st2{fill:#54585A;}
</style>
<g>
	<path id="Fill-1_00000019666490277387456790000006981452597853827249_" class="st0" d="M25.9,2.4h560.1c13,0,23.5,10.5,23.5,23.5
		v560.1c0,13-10.5,23.5-23.5,23.5H25.9c-13,0-23.5-10.5-23.5-23.5V25.9C2.4,13,13,2.4,25.9,2.4z"/>
	<path class="st1" d="M178.8,251.3v93.8H157v-38.5h-42.6v38.5H92.7v-93.8h21.7v37H157v-37L178.8,251.3L178.8,251.3z"/>
	<path class="st1" d="M265.2,327.4v17.7h-70.9v-14.1l36.2-34.2c8.3-7.9,9.8-12.7,9.8-17.3c0-7.4-5.1-11.7-15-11.7
		c-8,0-14.9,3.1-19.4,9.4L190,267.1c7.2-10.6,20.4-17.4,37.3-17.4c20.9,0,34.9,10.7,34.9,27.8c0,9.1-2.5,17.4-15.7,29.6l-21.6,20.4
		L265.2,327.4L265.2,327.4z"/>
	<path class="st1" d="M274.2,298.2c0-27.9,21.7-48.5,51.3-48.5s51.3,20.5,51.3,48.5s-21.8,48.5-51.3,48.5S274.2,326.1,274.2,298.2z
		 M354.9,298.2c0-17.8-12.6-30-29.4-30s-29.4,12.2-29.4,30s12.6,30,29.4,30S354.9,316.1,354.9,298.2z"/>
	<path class="st2" d="M384,333.1c0-7.8,5.8-12.9,13-12.9s13,5.1,13,12.9s-5.8,13.1-13,13.1S384,340.7,384,333.1z"/>
	<path class="st2" d="M489.3,304v41.2h-19.6v-9c-3.9,6.6-11.4,10.1-22,10.1c-16.9,0-26.9-9.4-26.9-21.8c0-12.5,9-21.6,31-21.6h16.6
		c0-9-5.4-14.2-16.6-14.2c-7.6,0-15.5,2.5-20.8,6.7l-7.5-14.6c7.9-5.6,19.6-8.7,31.1-8.7C476.6,272,489.3,282.1,489.3,304L489.3,304
		z M468.4,322.4V315h-14.3c-9.8,0-12.9,3.6-12.9,8.4c0,5.2,4.4,8.7,11.8,8.7C460,332.1,466,328.9,468.4,322.4L468.4,322.4z"/>
	<path class="st2" d="M505.7,251.3c0-6.6,5.2-11.7,13-11.7c7.8,0,13,4.8,13,11.3c0,7-5.2,12.1-13,12.1S505.7,257.9,505.7,251.3z
		 M508.2,273h20.9v72.1h-20.9L508.2,273L508.2,273z"/>
</g>
</svg>
